<svg width="24" height="25" viewBox="0 0 24 25" fill="none" xmlns="http://www.w3.org/2000/svg">
    <g clip-path="url(#clip0_2302_16941)">
        <path d="M23.9477 12.5C22.1977 7.26015 17.4954 3.49999 11.953 3.49999C9.96896 3.49999 8.09779 3.9899 6.42749 4.85101L3.57768 2L1.45752 4.12108L20.3282 22.9999L22.4483 20.8789L20.0054 18.4348C21.7843 16.8889 23.1641 14.846 23.9476 12.4999L23.9477 12.5ZM11.953 6.50001C15.2653 6.50001 17.9503 9.18628 17.9503 12.5C17.9503 13.6126 17.6349 14.6433 17.1032 15.5314L14.849 13.2763C14.9158 13.029 14.9516 12.7689 14.9516 12.5C14.9516 10.8431 13.6091 9.49999 11.953 9.49999C11.685 9.49999 11.4279 9.54044 11.1813 9.60692L8.94126 7.36587C9.82773 6.83509 10.8426 6.50001 11.953 6.50001Z" fill="#B7B7B7"/>
        <path d="M11.9528 18.5003C8.64049 18.5003 5.9554 15.814 5.9554 12.5003C5.9554 11.9663 6.04739 11.4581 6.17823 10.9654L2.82658 7.6123C1.56665 8.99261 0.575526 10.6513 -0.0419922 12.5003C1.70801 17.7401 6.41033 21.5003 11.9528 21.5003C13.3709 21.5003 14.7326 21.2509 16.0053 20.7968L13.487 18.2773C12.9945 18.4082 12.4865 18.5003 11.9528 18.5003Z" fill="#B7B7B7"/>
    </g>
    <defs>
        <clipPath id="clip0_2302_16941">
            <rect width="24" height="24" fill="white" transform="translate(0 0.5)"/>
        </clipPath>
    </defs>
</svg>
