<svg width="25" height="24" viewBox="0 0 25 24" fill="none" xmlns="http://www.w3.org/2000/svg">
    <g clip-path="url(#clip0_612_12681)">
        <path d="M23.9737 11.8447C22.273 6.55266 17.46 2.99744 11.9975 2.99744C6.53503 2.99744 1.72205 6.55266 0.0213596 11.8447C-0.0103751 11.9439 -0.0103751 12.0512 0.0213596 12.1504C1.72205 17.4424 6.53508 20.9977 11.9976 20.9977C17.4601 20.9977 22.273 17.4424 23.9738 12.1504C24.0055 12.0512 24.0055 11.9439 23.9737 11.8447ZM11.9975 18.9976C8.13761 18.9976 4.99747 15.8574 4.99747 11.9976C4.99747 8.13771 8.13766 4.99752 11.9975 4.99752C15.8574 4.99752 18.9976 8.13771 18.9976 11.9976C18.9976 15.8574 15.8574 18.9976 11.9975 18.9976Z" fill="white"/>
        <path d="M11.9976 15.9976C14.2067 15.9976 15.9976 14.2067 15.9976 11.9976C15.9976 9.78843 14.2067 7.99756 11.9976 7.99756C9.78843 7.99756 7.99756 9.78843 7.99756 11.9976C7.99756 14.2067 9.78843 15.9976 11.9976 15.9976Z" fill="white"/>
    </g>
    <defs>
        <clipPath id="clip0_612_12681">
            <rect width="24.0105" height="24" fill="white" transform="translate(0.0314941)"/>
        </clipPath>
    </defs>
</svg>
